<svg xmlns="http://www.w3.org/2000/svg" height="48" width="48" viewBox="0 0 501.768 501.768" xmlns:v="https://vecta.io/nano"><path d="M280.805 195.844c18.133 5.333 28.8 23.467 27.733 41.6L384.271 4.911c-68.267-22.4-94.933 45.867-105.6 76.8l-43.733 131.2c9.6-14.933 27.733-23.467 45.867-17.067z" fill="#c6cece"/><g fill="#ef9f2c"><path d="M280.805 195.844c-18.133-5.333-37.333 2.133-45.867 17.067l-56.533 176 94.933-43.733 35.2-108.8c1.067-17.067-9.6-35.2-27.733-40.534z"/><path d="M298.938 319.578c-49.067-16-102.4 10.667-117.333 59.733s10.667 102.4 59.733 117.333c49.067 16 102.4-10.667 117.333-59.733 16-49.067-10.666-101.333-59.733-117.333zm-46.933 142.933c-29.867-9.6-46.933-41.6-37.333-72.533 9.6-29.867 41.6-46.933 72.533-37.333 29.867 9.6 46.933 41.6 37.333 72.533-10.667 30.933-42.667 48-72.533 37.333z"/></g><path d="M306.405 221.444c-5.333-18.133-23.467-28.8-41.6-27.733l232.533-75.733c22.4 68.267-45.867 94.933-76.8 105.6l-131.2 43.733c14.933-9.6 23.467-27.733 17.067-45.867z" fill="#e3e8e8"/><g fill="#f7b044"><path d="M306.405 221.444c5.333 18.133-2.133 37.333-17.067 45.867l-176 56.533 43.733-94.933 108.8-35.2c17.067-1.067 35.2 9.6 40.534 27.733z"/><path d="M65.338 143.578c-49.067 16-76.8 68.267-60.8 118.4s68.267 75.733 117.333 59.733 75.733-68.267 59.733-117.333c-14.933-50.134-67.199-76.8-116.266-60.8zm10.667 34.133c29.867-9.6 61.867 6.4 72.533 37.333 9.6 29.867-6.4 61.867-37.333 72.533-29.867 9.6-61.867-6.4-72.533-37.333-9.601-29.866 7.466-61.866 37.333-72.533z"/></g><circle cx="269.071" cy="232.111" r="11.733" fill="#4d4e5b"/></svg>